<?xml version="1.0" encoding="UTF-8"?>
<svg xmlns="http://www.w3.org/2000/svg" xmlns:xlink="http://www.w3.org/1999/xlink" width="512" height="512" viewBox="0 0 58 59" version="1.1"><!-- Generator: Sketch 51.3 (57544) - http://www.bohemiancoding.com/sketch --><title>059 - Start Line</title><desc>Created with Sketch.</desc><defs/><g id="Page-1" stroke="none" stroke-width="1" fill="none" fill-rule="evenodd"><g id="059---Start-Line" transform="translate(0.000000, -1.000000)" fill-rule="nonzero"><rect id="Rectangle-path" fill="#2C2F38" x="2" y="42" width="54" height="18" rx="1"/><rect id="Rectangle-path" fill="#D1D4D1" x="2" y="48" width="6" height="6"/><rect id="Rectangle-path" fill="#D1D4D1" x="8" y="54" width="6" height="6"/><rect id="Rectangle-path" fill="#D1D4D1" x="8" y="42" width="6" height="6"/><rect id="Rectangle-path" fill="#D1D4D1" x="20" y="42" width="6" height="6"/><rect id="Rectangle-path" fill="#D1D4D1" x="32" y="54" width="6" height="6"/><rect id="Rectangle-path" fill="#D1D4D1" x="20" y="54" width="6" height="6"/><rect id="Rectangle-path" fill="#D1D4D1" x="32" y="42" width="6" height="6"/><rect id="Rectangle-path" fill="#D1D4D1" x="44" y="54" width="6" height="6"/><rect id="Rectangle-path" fill="#D1D4D1" x="44" y="42" width="6" height="6"/><rect id="Rectangle-path" fill="#D1D4D1" x="50" y="48" width="6" height="6"/><path d="M7,19 C4.23994685,18.9966939 2.00330612,16.7600532 2,14 C2,13.4477153 2.44771525,13 3,13 C3.55228475,13 4,13.4477153 4,14 C4,15.6568542 5.34314575,17 7,17 C8.65685425,17 10,15.6568542 10,14 C10,12.3431458 8.65685425,11 7,11 C4.23857625,11 2,8.76142375 2,6 C2,3.23857625 4.23857625,1 7,1 C9.76142375,1 12,3.23857625 12,6 C12,6.55228475 11.5522847,7 11,7 C10.4477153,7 10,6.55228475 10,6 C10,4.34314575 8.65685425,3 7,3 C5.34314575,3 4,4.34314575 4,6 C4,7.65685425 5.34314575,9 7,9 C9.76142375,9 12,11.2385763 12,14 C12,16.7614237 9.76142375,19 7,19 Z" id="Shape" fill="#E64C3C"/><path d="M17,19 C16.4477153,19 16,18.5522847 16,18 L16,2 C16,1.44771525 16.4477153,1 17,1 C17.5522847,1 18,1.44771525 18,2 L18,18 C18,18.5522847 17.5522847,19 17,19 Z" id="Shape" fill="#E64C3C"/><path d="M21,3 L13,3 C12.4477153,3 12,2.55228475 12,2 C12,1.44771525 12.4477153,1 13,1 L21,1 C21.5522847,1 22,1.44771525 22,2 C22,2.55228475 21.5522847,3 21,3 Z" id="Shape" fill="#E64C3C"/><path d="M51,19 C50.4477153,19 50,18.5522847 50,18 L50,2 C50,1.44771525 50.4477153,1 51,1 C51.5522847,1 52,1.44771525 52,2 L52,18 C52,18.5522847 51.5522847,19 51,19 Z" id="Shape" fill="#E64C3C"/><path d="M55,3 L47,3 C46.4477153,3 46,2.55228475 46,2 C46,1.44771525 46.4477153,1 47,1 L55,1 C55.5522847,1 56,1.44771525 56,2 C56,2.55228475 55.5522847,3 55,3 Z" id="Shape" fill="#E64C3C"/><path d="M32,19 C31.5543502,19.000058 31.162445,18.7052115 31.039,18.277 L27,4.3 L22.961,18.277 C22.8080171,18.8077456 22.2537456,19.1139828 21.723,18.961 C21.1922544,18.8080171 20.8860171,18.2537456 21.039,17.723 L25.562,2.073 C25.7495691,1.43996647 26.3289997,1.00401109 26.9892196,0.999180214 C27.6494395,0.994349336 28.2351876,1.42177901 28.432,2.052 L32.961,17.723 C33.0344996,17.9778736 33.0037233,18.2515071 32.8754435,18.4836861 C32.7471637,18.715865 32.531892,18.8875641 32.277,18.961 C32.1869012,18.9866845 32.093688,18.9998083 32,19 Z" id="Shape" fill="#E64C3C"/><path d="M30.13,13 L23.88,13 C23.3277153,13 22.88,12.5522847 22.88,12 C22.88,11.4477153 23.3277153,11 23.88,11 L30.13,11 C30.6822847,11 31.13,11.4477153 31.13,12 C31.13,12.5522847 30.6822847,13 30.13,13 Z" id="Shape" fill="#E64C3C"/><path d="M40,11 L36,11 C35.4477153,11 35,10.5522847 35,10 L35,3 C35,1.8954305 35.8954305,1 37,1 L40,1 C42.7614237,1 45,3.23857625 45,6 C45,8.76142375 42.7614237,11 40,11 Z M37,9 L40,9 C41.6568542,9 43,7.65685425 43,6 C43,4.34314575 41.6568542,3 40,3 L37,3 L37,9 Z" id="Shape" fill="#E64C3C"/><path d="M36,19 C35.4477153,19 35,18.5522847 35,18 L35,10 C35,9.44771525 35.4477153,9 36,9 C36.5522847,9 37,9.44771525 37,10 L37,18 C37,18.5522847 36.5522847,19 36,19 Z" id="Shape" fill="#E64C3C"/><path d="M44,19 C43.6191744,19.0020788 43.2702259,18.7876694 43.1,18.447 L39.1,10.447 C38.9403023,10.1272473 38.9633215,9.7465859 39.1603866,9.44840726 C39.3574517,9.15022863 39.6986238,8.97983319 40.0553866,9.00140726 C40.4121495,9.02298133 40.7303023,9.2332473 40.89,9.553 L44.89,17.553 C45.0445455,17.8622668 45.0283796,18.2294236 44.8472507,18.5239106 C44.6661219,18.8183976 44.3457279,18.9984342 44,19 Z" id="Shape" fill="#E64C3C"/><rect id="Rectangle-path" fill="#D1D4D1" x="14" y="48" width="6" height="6"/><rect id="Rectangle-path" fill="#D1D4D1" x="26" y="48" width="6" height="6"/><rect id="Rectangle-path" fill="#D1D4D1" x="38" y="48" width="6" height="6"/><path d="M1,40 C0.44771525,40 0,39.5522847 0,39 L0,22 C-1.11022302e-16,21.4477153 0.44771525,21 1,21 C1.55228475,21 2,21.4477153 2,22 L2,39 C2,39.5522847 1.55228475,40 1,40 Z" id="Shape" fill="#E4C05C"/><path d="M57,40 C56.4477153,40 56,39.5522847 56,39 L56,22 C56,21.4477153 56.4477153,21 57,21 C57.5522847,21 58,21.4477153 58,22 L58,39 C58,39.5522847 57.5522847,40 57,40 Z" id="Shape" fill="#E4C05C"/><path d="M14,26 C13.4477153,26 13,25.5522847 13,25 L13,22 C13,21.4477153 13.4477153,21 14,21 C14.5522847,21 15,21.4477153 15,22 L15,25 C15,25.5522847 14.5522847,26 14,26 Z" id="Shape" fill="#E4C05C"/><path d="M14,33 C13.4477153,33 13,32.5522847 13,32 L13,29 C13,28.4477153 13.4477153,28 14,28 C14.5522847,28 15,28.4477153 15,29 L15,32 C15,32.5522847 14.5522847,33 14,33 Z" id="Shape" fill="#E4C05C"/><path d="M14,40 C13.4477153,40 13,39.5522847 13,39 L13,36 C13,35.4477153 13.4477153,35 14,35 C14.5522847,35 15,35.4477153 15,36 L15,39 C15,39.5522847 14.5522847,40 14,40 Z" id="Shape" fill="#E4C05C"/><path d="M29,26 C28.4477153,26 28,25.5522847 28,25 L28,22 C28,21.4477153 28.4477153,21 29,21 C29.5522847,21 30,21.4477153 30,22 L30,25 C30,25.5522847 29.5522847,26 29,26 Z" id="Shape" fill="#E4C05C"/><path d="M29,33 C28.4477153,33 28,32.5522847 28,32 L28,29 C28,28.4477153 28.4477153,28 29,28 C29.5522847,28 30,28.4477153 30,29 L30,32 C30,32.5522847 29.5522847,33 29,33 Z" id="Shape" fill="#E4C05C"/><path d="M29,40 C28.4477153,40 28,39.5522847 28,39 L28,36 C28,35.4477153 28.4477153,35 29,35 C29.5522847,35 30,35.4477153 30,36 L30,39 C30,39.5522847 29.5522847,40 29,40 Z" id="Shape" fill="#E4C05C"/><path d="M44,26 C43.4477153,26 43,25.5522847 43,25 L43,22 C43,21.4477153 43.4477153,21 44,21 C44.5522847,21 45,21.4477153 45,22 L45,25 C45,25.5522847 44.5522847,26 44,26 Z" id="Shape" fill="#E4C05C"/><path d="M44,33 C43.4477153,33 43,32.5522847 43,32 L43,29 C43,28.4477153 43.4477153,28 44,28 C44.5522847,28 45,28.4477153 45,29 L45,32 C45,32.5522847 44.5522847,33 44,33 Z" id="Shape" fill="#E4C05C"/><path d="M44,40 C43.4477153,40 43,39.5522847 43,39 L43,36 C43,35.4477153 43.4477153,35 44,35 C44.5522847,35 45,35.4477153 45,36 L45,39 C45,39.5522847 44.5522847,40 44,40 Z" id="Shape" fill="#E4C05C"/></g></g></svg>
