<svg xmlns="http://www.w3.org/2000/svg" xmlns:xlink="http://www.w3.org/1999/xlink" width="617.433" height="514.996" viewBox="0 0 617.433 514.996"><defs><style>.a{fill:#0059a2;}.b{fill:url(#a);}.c{fill:#fdb797;}.d{clip-path:url(#b);}.e,.f{opacity:0.1;}.g{fill:#333;}.h{fill:#3ad29f;}.i{fill:#f55f44;}.i,.j,.k,.l{opacity:0.5;}.j{fill:#4d8af0;}.k,.m{fill:#47e6b1;}</style><linearGradient id="a" x1="0.5" y1="1" x2="0.5" gradientUnits="objectBoundingBox"><stop offset="0" stop-color="gray" stop-opacity="0.251"/><stop offset="0.54" stop-color="gray" stop-opacity="0.122"/><stop offset="1" stop-color="gray" stop-opacity="0.102"/></linearGradient><clipPath id="b"><path class="a" d="M406.08,215.31s34.447,10.333,82.68-5.17,148.134,22.39,148.134,22.39,79.233,0,196.367-49.95c0,0-53.4,51.673-15.5,82.68s3.447,75.787-41.34,93.014-48.227,51.673-44.787,84.4,0,1.723,0,1.723-134.354-24.113-168.807,58.58L392.3,234.26S381.967,213.594,406.08,215.31Z" transform="translate(-390.099 -182.58)"/></clipPath></defs><path class="b" d="M792.6,233.747a44.448,44.448,0,0,1-5.068-4.836v1.247c-12.377-12.629-11.941-27.928-6.873-41.885l1.676-.62c7.956-21.034,26.191-38.677,26.191-38.677L805.8,150.12c.845-.872,1.328-1.362,1.328-1.362C694.055,196.991,615.38,199.8,606.607,199.968c-5.409-2.044-49.971-18.269-93.082-24.318-13.562-1.969-27.029-2.956-39.126-2.193l-13.583-58.315-.259.157c-.633-5-2.984-15.885-11.58-22.635-11.478-8.964-2.929,32.281-2.929,32.281l.94-.443,4.809,51.932-2.343,1.962a178.507,178.507,0,0,1-41.769,7.2,29.392,29.392,0,0,0,6.348-8.467,5.647,5.647,0,0,0,5.116-1.519,6.941,6.941,0,0,0,1.124-1.574,14.987,14.987,0,0,0,1.5-3.222c2.82-7.575,5.9-15.17,6.812-23.194S428,130.89,422.6,124.876s-15.251-8.3-21.865-3.658c-1.71,1.2-3.161,2.793-5.041,3.706-5.729,2.772-12.084-1.723-17.417-5.2-6.2-4.039-14.386-6.934-20.81-3.27a12.738,12.738,0,0,0-4.768,4.891,15.557,15.557,0,0,0-2.364,9.366c.368,5.293,3.222,10.218,7.043,13.869a12.023,12.023,0,0,0,4.612,3.011,8.559,8.559,0,0,0,1.362.3A29.365,29.365,0,0,0,359.084,170l-2.377,14.386c-2.112.988-3.29,3.147-3.951,5.259-9.938.293-20.108,7.1-20.108,7.1L293.59,235.811c-10.129,6.873-3.256,19.529-3.256,19.529L313.119,323.7l1.26-.94c4.673,8.515,18.391,32.015,21.028,20.3,3.222-14.2-6.812-27.083-6.812-27.083h-.123l-2.6-3.338-9.536-50.815L328.4,249.836l16.212-2.364.722,105.22C315.68,430.816,319.3,466.618,319.3,466.618l26.041,97.652,3.324-.552.8,3.215.293-.1,1.444,7.207h-2.6l-3.256,9.768s-16.634-.361-16.273,3.256,9.407,9.768,32.553,3.256l6.512-6.512s3.256-3.256-3.256-9.768h-.463L362.612,561.4l2.268-.381-19.543-97.673c16.273-13.385,45.57-65.1,45.57-65.1s29.29,51.721,45.57,65.1l-19.529,97.645,2.268.381-1.778,12.642h-.463c-6.512,6.512-3.256,9.768-3.256,9.768l6.512,6.512c23.16,6.512,32.192.361,32.553-3.256s-16.273-3.256-16.273-3.256l-3.256-9.768h-2.6l1.873-9.373.334-1,3.651.606,26.041-97.652s-.484-56.421-25.768-126.949l51.946,72.844,41.1,64.806a88.1,88.1,0,0,1,7.99-14.986l29.74-27.785c34.569-20.564,80.718-21.8,109.218-20.1l26.279,2.841,12.356-65.092c7.2-9.271,17.888-17.268,33.425-23.248,32.233-12.4,59.262-38.718,59.044-64.309.47.525.926,1.049,1.362,1.58C809.581,254.87,804.67,243.631,792.6,233.747ZM435.831,330.3l-.034-1.2,1.5,2.357Z" transform="translate(-191.83 -78.182)"/><path class="c" d="M348.458,418.509h-.123l-5.783-7.459-9.359,9.359,1.035,1.553-1.178.286s18.889,36.483,22.036,22.635S348.458,418.509,348.458,418.509Z" transform="translate(-206.176 -180.1)"/><path class="a" d="M406.08,215.31s34.447,10.333,82.68-5.17,148.134,22.39,148.134,22.39,79.233,0,196.367-49.95c0,0-53.4,51.673-15.5,82.68s3.447,75.787-41.34,93.014-48.227,51.673-44.787,84.4,0,1.723,0,1.723-134.354-24.113-168.807,58.58L392.3,234.26S381.967,213.594,406.08,215.31Z" transform="translate(-224.365 -107.256)"/><g class="d" transform="translate(165.734 75.324)"><path class="e" d="M141.46,84.18,570.357,392.5l25.837-75.787Z" transform="translate(-210.836 -102.163)"/><path class="e" d="M179.39,225.79l237.7,241.147L451.544,441.1Z" transform="translate(-222.929 -147.313)"/></g><g class="f" transform="translate(167.056 75.521)"><path d="M416.65,239.713s34.447,10.333,82.68-5.17,148.12,22.4,148.12,22.4,64.1,0,162.213-36.347c7.759-20.517,25.537-37.723,25.537-37.723-117.161,49.95-196.367,49.95-196.367,49.95S538.927,194.927,490.7,210.43s-82.68,5.17-82.68,5.17c-24.113-1.723-13.78,18.95-13.78,18.95l7.091,11.178C402.809,241.961,406.93,239.019,416.65,239.713Z" transform="translate(-392.039 -182.87)"/><path d="M1017.571,302.04a43.348,43.348,0,0,1-4.945-4.721c-.4,10.17,3.113,20.285,13.555,28.834a53.769,53.769,0,0,1,7.615,7.534C1034.131,322.639,1029.342,311.672,1017.571,302.04Z" transform="translate(-589.893 -219.36)"/></g><path class="c" d="M351.148,697.8l-3.174,15.878h-12.7l3.181-22.227Z" transform="translate(-106.895 -220.456)"/><path class="e" d="M351.919,702.734l-.892,2.684L338.5,701.842l.892-1.791Z" transform="translate(-107.925 -223.198)"/><path class="c" d="M237.41,697.8l3.174,15.878h12.7l-3.174-22.227Z" transform="translate(-75.694 -220.456)"/><path class="e" d="M237.34,702.734l.892,3.576,12.533-4.468V700.05Z" transform="translate(-75.672 -223.198)"/><path class="c" d="M536.7,126.358s-.354-15.912-11.532-24.672-2.813,31.463-2.813,31.463Z" transform="translate(-265.573 -81.067)"/><path class="g" d="M391.154,791.42H375.283l-3.174,9.536s-16.225-.354-15.871,3.174,9.169,9.536,31.742,3.174l6.349-6.348S397.5,797.769,391.154,791.42Z" transform="translate(-213.567 -301.374)"/><path class="g" d="M480.2,791.42h15.871l3.174,9.536s16.225-.354,15.871,3.174-9.169,9.536-31.742,3.174l-6.348-6.348S473.854,797.769,480.2,791.42Z" transform="translate(-251.828 -301.374)"/><path class="g" d="M456.456,474.51H367.59C338.668,550.7,342.2,585.622,342.2,585.622l25.394,95.234,19.073-3.174L367.59,582.468c15.871-13.051,44.446-63.492,44.446-63.492s28.561,50.413,44.419,63.492L437.383,677.7l19.073,3.174,25.394-95.234S485.4,550.7,456.456,474.51Z" transform="translate(-209.049 -200.333)"/><path class="e" d="M379.54,476.32s50.406,19.073,88.886,0Z" transform="translate(-220.998 -200.91)"/><path class="h" d="M350.614,286.1,325.22,311.5l9.536,50.795-12.7,9.536-22.22-66.666s-6.7-12.343,3.174-19.073l38.1-38.1s16.348-10.953,27.587-5.34-18.3,43.05-18.3,43.05" transform="translate(-194.879 -125.899)"/><path class="h" d="M374.87,251.8l3.174,114.286s50.406,19.073,88.886,0l-3.174-107.584-.811-3.556.586-1.751,38.145-31.633c10.456-5.756,4.932-18.671,4.932-18.671L490.669,134.46l-13.535,8.3,4.768,51.455-27.165,22.533-.681-.034v.17l-69.636-3.167" transform="translate(-219.509 -91.914)"/><rect class="c" width="25.394" height="28.568" rx="12.697" transform="translate(190.461 106.099)"/><path class="e" d="M427.59,240.476a28.562,28.562,0,0,0,24.522-2.725,12.745,12.745,0,0,0-11.934-8.372h0a12.738,12.738,0,0,0-12.588,11.1Z" transform="translate(-236.318 -122.178)"/><circle class="c" cx="28.568" cy="28.568" r="28.568" transform="translate(171.416 61.659)"/><path class="e" d="M403.425,166.539a14.714,14.714,0,0,1-5.313-.3,11.729,11.729,0,0,1-4.5-2.943c-3.733-3.583-6.512-8.365-6.873-13.528s2.044-10.633,6.519-13.194c6.267-3.569,14.257-.749,20.3,3.188,5.2,3.406,11.4,7.772,16.988,5.068,1.832-.885,3.249-2.445,4.918-3.61,6.451-4.53,16.055-2.3,21.321,3.569s6.744,14.352,5.838,22.186-3.9,15.238-6.655,22.622a10.973,10.973,0,0,1-2.132,3.971c-3.351,3.44-9.625.77-11.832-3.494-3.835-7.418,0-20.278-9.059-24.6C425.733,162.036,411.17,166.035,403.425,166.539Z" transform="translate(-223.283 -92.066)"/><path class="g" d="M404.055,165.5a14.713,14.713,0,0,1-5.313-.3,11.73,11.73,0,0,1-4.5-2.943c-3.733-3.583-6.512-8.365-6.873-13.528s2.043-10.633,6.519-13.194c6.267-3.569,14.257-.749,20.3,3.188,5.2,3.406,11.4,7.772,16.988,5.068,1.832-.886,3.249-2.445,4.918-3.61,6.451-4.53,16.055-2.3,21.321,3.569s6.744,14.352,5.838,22.186-3.944,15.238-6.669,22.622a10.973,10.973,0,0,1-2.132,3.971c-3.351,3.44-9.625.77-11.832-3.494-3.835-7.418,0-20.278-9.06-24.6C426.384,161,411.793,165,404.055,165.5Z" transform="translate(-223.484 -91.735)"/><ellipse class="c" cx="3.174" cy="6.348" rx="3.174" ry="6.348" transform="translate(212.681 83.879)"/><path class="e" d="M228.14,234.71l8.058,3.774-8.058,9.85Z" transform="translate(-72.738 -74.833)"/><path class="e" d="M355.688,236.75l-5.368,5.967,3.576,5.368,2.091-5.967Z" transform="translate(-111.693 -75.483)"/><path class="a" d="M427.493,260.357v5.17s-37.7-6.887-38.663-17.227l24.883,1.723Z" transform="translate(-223.96 -128.21)"/><path class="a" d="M445.59,260.357v5.17s37.7-6.887,38.663-17.227l-24.883,1.723Z" transform="translate(-242.057 -128.21)"/><path class="e" d="M637.09,276.36l124.02,29.283-44.787,18.95Z" transform="translate(-203.125 -88.112)"/><path class="a" d="M389,243.6s0-10.824,7.22-10.824,14.434,21.654,14.434,21.654Z" transform="translate(-224.014 -123.262)"/><circle class="i" cx="4.727" cy="4.727" r="4.727" transform="translate(3.147 195.304)"/><circle class="i" cx="4.727" cy="4.727" r="4.727" transform="translate(62.211 306.348)"/><circle class="i" cx="4.727" cy="4.727" r="4.727" transform="translate(565.444 8.658)"/><path class="j" d="M645.062,93.723a2.9,2.9,0,0,1-1.614-3.494,1.362,1.362,0,0,0,.061-.32h0a1.451,1.451,0,0,0-2.609-.96h0a1.363,1.363,0,0,0-.163.286,2.9,2.9,0,0,1-3.488,1.608,1.362,1.362,0,0,0-.32-.061h0a1.451,1.451,0,0,0-.96,2.609h0a1.365,1.365,0,0,0,.286.163,2.9,2.9,0,0,1,1.594,3.488,1.362,1.362,0,0,0-.061.32h0a1.451,1.451,0,0,0,2.609.96h0a1.363,1.363,0,0,0,.164-.286,2.9,2.9,0,0,1,3.494-1.614,1.363,1.363,0,0,0,.32.061h0a1.451,1.451,0,0,0,.967-2.6h0a1.361,1.361,0,0,0-.279-.157Z" transform="translate(-302.571 -77.219)"/><path class="j" d="M986.119,515.713a2.9,2.9,0,0,1-1.614-3.494,1.358,1.358,0,0,0,.061-.32h0a1.451,1.451,0,0,0-2.609-.961h0a1.36,1.36,0,0,0-.164.286,2.9,2.9,0,0,1-3.494,1.614,1.361,1.361,0,0,0-.32-.061h0a1.451,1.451,0,0,0-.961,2.609h0a1.368,1.368,0,0,0,.286.163,2.9,2.9,0,0,1,1.614,3.494,1.364,1.364,0,0,0-.061.32h0a1.451,1.451,0,0,0,2.609.96h0a1.363,1.363,0,0,0,.163-.286,2.9,2.9,0,0,1,3.495-1.614,1.352,1.352,0,0,0,.32.061h0a1.451,1.451,0,0,0,.961-2.609h0A1.361,1.361,0,0,0,986.119,515.713Z" transform="translate(-411.308 -211.762)"/><circle class="k" cx="4.727" cy="4.727" r="4.727" transform="translate(395.336 433.924)"/><circle class="k" cx="4.727" cy="4.727" r="4.727" transform="translate(3.147 400.854)"/><circle class="k" cx="4.727" cy="4.727" r="4.727" transform="translate(381.161 58.274)"/><g class="l"><rect class="m" width="2.364" height="13.385" transform="translate(5.511)"/><rect class="m" width="2.364" height="13.385" transform="translate(13.385 5.511) rotate(90)"/></g><g class="l" transform="translate(43.315 128.366)"><rect class="m" width="2.364" height="13.385" transform="translate(5.511)"/><rect class="m" width="2.364" height="13.385" transform="translate(13.385 5.511) rotate(90)"/></g><g class="l" transform="translate(476.463 70.876)"><rect class="m" width="2.364" height="13.385" transform="translate(5.504)"/><rect class="m" width="2.364" height="13.385" transform="translate(13.385 5.511) rotate(90)"/></g></svg>